<?xml version="1.0" standalone="no"?>
<!DOCTYPE svg PUBLIC "-//W3C//DTD SVG 20010904//EN"
 "http://www.w3.org/TR/2001/REC-SVG-20010904/DTD/svg10.dtd">
<svg version="1.0" xmlns="http://www.w3.org/2000/svg"
 width="1000.000000pt" height="1000.000000pt" viewBox="0 0 1000.000000 1000.000000"
 preserveAspectRatio="xMidYMid meet">
<metadata>
Created by potrace 1.14, written by Peter Selinger 2001-2017
</metadata>
<g transform="translate(0.000000,1000.000000) scale(0.100000,-0.100000)"
fill="#000000" stroke="none">
<path d="M230 7892 c-8 -9 -51 -62 -94 -117 -44 -55 -83 -102 -86 -105 -26
-22 -50 -72 -45 -98 2 -16 7 -46 10 -68 6 -49 15 -113 20 -139 2 -11 4 -26 4
-32 1 -10 53 -13 207 -15 l206 -3 39 -100 c21 -55 43 -109 48 -120 16 -34 264
-659 268 -677 4 -15 -25 -16 -352 -16 -196 0 -358 -2 -360 -4 -10 -10 109
-229 147 -269 46 -48 170 -187 178 -199 3 -4 105 -7 227 -7 123 0 225 -2 228
-5 3 -3 14 -27 24 -54 10 -27 55 -148 101 -269 46 -121 91 -243 101 -272 10
-29 24 -67 32 -85 8 -18 47 -121 87 -228 40 -107 83 -222 95 -255 26 -67 251
-667 295 -785 39 -107 71 -191 83 -220 6 -14 11 -29 13 -35 5 -17 284 -759
294 -780 5 -11 12 -31 15 -45 4 -14 13 -38 20 -55 18 -42 85 -219 85 -225 0
-3 -235 -5 -522 -5 -482 0 -630 -4 -719 -21 -41 -8 -69 -22 -69 -34 0 -26 200
-92 359 -120 31 -5 83 -14 116 -20 63 -11 241 -35 335 -46 30 -3 66 -8 80 -11
14 -3 219 -7 455 -10 l430 -4 118 -125 c66 -68 122 -122 126 -119 12 7 355 17
1021 30 151 3 383 7 515 10 132 2 375 7 540 10 1080 20 1296 24 1475 30 91 3
181 8 200 10 19 2 64 7 100 10 141 14 340 69 445 123 28 14 64 27 80 28 17 2
62 5 100 8 39 4 88 8 110 11 119 15 156 19 225 30 14 2 57 9 95 15 86 13 248
46 295 61 19 5 43 12 52 14 34 7 103 42 116 58 19 23 -5 33 -114 49 -140 20
-1650 14 -1684 -7 -3 -2 -11 -1 -17 3 -14 10 42 122 204 402 55 95 24 76 258
157 402 138 862 351 1225 567 208 124 541 350 651 444 13 11 69 57 124 103
138 115 422 402 528 534 90 112 250 346 305 445 129 235 239 521 277 725 3 17
12 68 21 115 24 130 26 306 4 425 -60 327 -235 565 -515 700 -218 105 -393
137 -710 130 -110 -2 -211 -6 -225 -9 -14 -2 -43 -7 -65 -10 -22 -3 -76 -15
-119 -26 -44 -11 -80 -20 -82 -20 -1 0 -1 12 1 28 9 79 17 148 20 162 1 8 6
49 10 90 3 41 8 89 10 105 2 17 7 72 10 124 4 52 8 103 10 113 4 17 -140 18
-4038 18 -3855 0 -4043 -1 -4057 -18z m8565 -1182 c192 -45 309 -104 415 -210
123 -122 160 -223 155 -423 -4 -144 -9 -184 -42 -297 -57 -199 -146 -380 -289
-586 -160 -232 -413 -493 -694 -717 -47 -38 -92 -74 -100 -80 -135 -110 -519
-359 -763 -496 -194 -110 -497 -264 -497 -255 0 4 20 41 44 83 24 42 61 108
82 146 21 39 48 88 60 110 40 70 258 506 306 611 120 259 326 771 353 874 2 8
25 76 50 150 84 245 215 721 255 927 13 67 5 59 120 111 173 79 355 96 545 52z
m-6331 -3772 c14 -27 38 -69 53 -95 63 -112 133 -247 133 -258 0 -1 -12 -1
-27 1 -16 1 -86 4 -156 6 -71 2 -130 5 -132 8 -2 3 44 5 103 4 59 0 110 1 114
3 6 3 -110 354 -128 386 -5 8 -4 9 3 2 6 -5 22 -31 37 -57z"/>
</g>
</svg>
